 <svg  version="1.0" xmlns="http://www.w3.org/2000/svg"  width="300.000000pt" height="145.000000pt" viewBox="0 0 300.000000 145.000000"  preserveAspectRatio="xMidYMid meet">  <g transform="translate(0.000000,145.000000) scale(0.050000,-0.050000)" fill="#6c2d59" stroke="none"> <path d="M352 2877 c10 -16 -2 -19 -39 -10 -29 8 -53 6 -53 -3 0 -10 -27 -16 -61 -14 -33 2 -65 -3 -70 -12 -6 -9 -37 -13 -70 -8 -58 7 -59 6 -59 -86 l0 -94 535 0 c572 0 734 -23 1065 -148 64 -24 116 -34 129 -23 36 29 354 117 517 143 544 84 1050 -129 972 -409 -14 -52 -13 -85 4 -116 128 -240 -260 -848 -760 -1191 -20 -14 68 -85 118 -96 67 -15 110 6 600 288 197 114 373 202 402 202 109 0 144 -102 88 -261 -44 -122 -28 -117 79 28 328 448 779 471 664 35 -42 -159 -36 -165 44 -53 194 270 531 406 667 270 76 -76 73 -89 -96 -428 -176 -357 -173 -369 58 -214 215 145 471 301 499 305 107 13 98 -37 -20 -114 -660 -434 -743 -471 -817 -357 -48 73 -27 197 81 472 95 244 110 317 64 317 -97 0 -474 -415 -594 -653 -75 -147 -188 -196 -246 -104 -24 39 96 457 179 624 66 133 64 181 -5 164 -191 -48 -625 -496 -690 -712 -29 -98 -62 -127 -126 -111 -96 24 -67 178 107 580 60 138 70 141 -400 -137 -490 -289 -555 -307 -707 -194 l-76 56 -132 -88 c-534 -355 -1143 -525 -1396 -391 -614 328 -214 1519 674 2005 117 64 119 62 -71 111 -273 70 -478 90 -945 90 l-465 0 0 -93 c0 -52 6 -88 13 -81 7 8 25 4 40 -9 15 -12 27 -14 27 -4 0 9 65 15 145 12 80 -3 233 -5 341 -5 108 0 191 -8 186 -17 -6 -9 44 -13 111 -9 96 7 118 3 105 -18 -13 -21 -10 -21 15 -1 26 21 35 16 56 -30 13 -30 18 -49 10 -41 -8 8 -37 -12 -66 -45 -29 -32 -62 -59 -75 -59 -13 0 -35 -16 -51 -35 -25 -32 -24 -33 13 -5 37 28 38 27 13 -5 -16 -19 -40 -35 -55 -35 -16 0 -27 -7 -26 -15 9 -56 -2 -70 -36 -42 -18 15 -27 17 -20 4 20 -34 -7 -91 -37 -80 -15 6 -23 -3 -20 -23 4 -28 -49 -125 -89 -164 -6 -5 -22 -35 -35 -65 -13 -30 -34 -55 -46 -55 -12 0 -16 -9 -9 -20 7 -11 3 -20 -9 -20 -11 0 -21 -17 -21 -38 0 -20 -13 -48 -30 -62 -16 -14 -30 -42 -30 -64 0 -21 -11 -58 -24 -82 -13 -24 -26 -56 -28 -71 -3 -14 -11 -41 -19 -60 -24 -59 -39 -300 -19 -319 4 -5 -1 -29 -11 -55 -10 -27 -10 -52 0 -58 10 -6 24 -48 32 -94 7 -46 39 -127 71 -181 64 -107 70 -126 35 -104 -15 9 -18 5 -8 -10 8 -14 20 -20 26 -14 10 10 64 -32 239 -186 24 -21 48 -33 55 -27 6 7 11 2 11 -10 0 -12 18 -17 40 -11 22 6 40 2 40 -8 0 -38 582 -4 596 35 4 9 20 12 35 6 16 -6 29 -2 29 8 0 18 109 54 145 48 8 -2 15 6 15 17 0 11 10 20 22 20 11 0 120 50 240 110 120 61 230 110 244 110 14 0 41 18 59 40 35 41 175 58 175 22 0 -10 28 -16 61 -14 34 3 65 -2 71 -11 15 -24 226 30 303 79 25 16 45 21 46 11 0 -9 9 -1 21 18 11 19 29 35 40 35 11 0 56 17 99 38 l79 38 11 -53 c45 -224 212 -384 341 -326 28 13 61 18 73 10 12 -7 15 -4 8 8 -7 12 30 60 82 106 52 47 83 78 68 70 -18 -11 -16 2 7 37 19 28 43 52 52 52 10 0 18 12 18 26 0 15 12 43 27 63 23 31 26 32 26 4 0 -18 -9 -33 -21 -33 -15 -1 -14 -6 1 -15 13 -8 28 -45 34 -82 5 -37 26 -86 46 -110 57 -68 197 -205 178 -174 -13 21 -7 25 29 15 58 -15 189 50 254 127 27 32 59 56 72 54 13 -3 21 11 18 30 -8 51 69 46 82 -5 6 -23 11 -46 11 -51 1 -6 29 -35 62 -64 34 -30 61 -65 61 -78 0 -13 27 -30 60 -37 33 -7 55 -21 50 -31 -12 -19 78 -11 138 13 30 11 35 8 24 -14 -8 -15 -2 -12 15 9 16 20 42 38 56 40 15 2 41 13 57 24 55 35 109 67 174 101 35 19 59 43 52 54 -7 11 -2 14 10 7 11 -8 43 7 71 32 27 25 84 63 126 84 70 36 261 191 235 191 -5 0 4 20 21 44 42 61 39 83 -18 152 -28 32 -43 65 -35 73 8 8 5 11 -6 8 -11 -4 -20 2 -20 13 0 24 -177 51 -186 28 -4 -8 -20 -11 -35 -5 -18 7 -29 -1 -29 -21 0 -21 -17 -32 -49 -32 -46 0 -48 5 -42 110 4 61 -2 110 -12 110 -11 0 -14 9 -7 20 7 11 -2 20 -19 20 -18 0 -31 17 -31 41 0 23 -9 36 -20 29 -11 -7 -20 -3 -20 8 0 45 -123 149 -142 120 -14 -22 -17 -21 -18 7 0 44 -97 48 -176 8 -30 -15 -87 -34 -127 -41 -40 -7 -79 -27 -85 -45 -8 -20 -27 -28 -52 -21 -22 6 -40 2 -40 -8 0 -29 -36 -21 -74 18 -148 148 -225 165 -427 94 -44 -16 -95 -23 -114 -17 -30 9 -30 7 -5 -11 27 -19 27 -21 0 -22 -16 0 -51 -23 -77 -50 -26 -28 -55 -45 -65 -39 -10 6 -18 3 -18 -8 0 -25 -48 -18 -83 11 -46 38 -237 74 -237 45 0 -11 -22 -19 -49 -19 -27 0 -54 -9 -61 -21 -7 -11 -24 -18 -37 -16 -12 2 -38 -3 -57 -12 -18 -8 -50 -5 -70 7 -20 11 -25 21 -11 21 14 1 25 15 25 31 0 17 9 30 20 30 11 0 20 12 20 27 0 15 23 61 50 102 28 40 41 68 28 60 -16 -10 -16 -3 0 27 12 22 33 45 47 51 20 8 20 10 0 11 -14 1 -25 12 -25 23 0 12 8 16 18 10 9 -6 22 7 28 29 6 22 2 35 -8 29 -21 -13 -25 38 -4 58 7 7 11 47 9 88 -3 41 -8 129 -12 195 -9 146 -50 246 -141 347 -38 43 -67 81 -65 85 3 4 1 6 -3 3 -11 -6 -149 78 -164 101 -7 9 -18 17 -25 16 -39 -5 -54 0 -44 16 6 9 -7 22 -29 28 -22 6 -36 3 -30 -6 15 -24 -78 3 -95 28 -11 16 -20 15 -31 -2 -10 -16 -25 -18 -45 -5 -16 10 -54 19 -84 19 -30 0 -55 9 -55 20 0 13 -32 15 -83 7 -68 -11 -80 -8 -66 15 14 23 11 24 -14 3 -17 -13 -36 -19 -43 -13 -6 7 -23 4 -38 -5 -34 -22 -265 -68 -360 -72 -40 -2 -69 -10 -64 -19 6 -9 -9 -16 -32 -16 -24 0 -59 -9 -80 -20 -66 -35 -180 -45 -180 -16 -1 19 -6 18 -20 -4 -16 -25 -19 -25 -20 -2 0 16 -6 23 -13 16 -7 -8 -25 -4 -40 9 -25 21 -113 39 -192 39 -20 0 -32 7 -28 14 5 8 -29 16 -75 18 -45 2 -110 14 -142 28 -33 13 -95 27 -137 31 -43 3 -92 17 -109 31 -21 17 -27 18 -18 2 8 -13 6 -28 -4 -35 -10 -6 -23 3 -29 19 -10 24 -56 30 -244 30 -169 0 -228 -6 -217 -23z"/> <path d="M2400 2476 c-262 -56 -445 -133 -325 -137 19 -1 120 -26 225 -57 l189 -55 117 37 c148 45 294 45 429 -2 l105 -36 0 58 c0 180 -360 274 -740 192z"/> <path d="M1780 2237 c-978 -557 -1437 -1792 -650 -1751 250 13 853 246 1067 411 l48 37 -49 78 c-214 340 -169 835 96 1067 88 77 101 64 -155 150 -254 85 -223 84 -357 8z m205 -206 c5 -27 2 -56 -7 -65 -8 -9 -20 -41 -25 -71 -6 -30 -17 -66 -26 -80 -9 -14 -18 -43 -22 -65 -3 -22 -11 -53 -18 -70 -7 -16 -13 -52 -15 -80 -1 -27 -9 -61 -18 -75 -10 -14 -7 -25 5 -25 12 0 21 -41 21 -93 0 -95 57 -311 85 -324 8 -3 4 -26 -9 -50 -12 -23 -20 -47 -16 -53 12 -18 -267 -156 -294 -146 -14 6 -26 0 -26 -13 0 -13 -9 -18 -20 -11 -11 7 -20 2 -20 -10 0 -12 -9 -17 -21 -9 -11 7 -45 -3 -74 -22 -50 -33 -120 -51 -219 -55 -24 -1 -39 -9 -33 -18 5 -9 -46 -14 -115 -11 -115 5 -128 10 -160 65 -36 62 -51 230 -20 230 10 0 17 11 17 25 -3 69 7 98 31 89 16 -6 27 9 30 41 2 28 13 62 24 75 11 13 14 30 6 37 -7 7 0 13 16 13 16 0 31 18 32 39 3 37 16 57 80 129 13 15 20 32 14 37 -6 6 14 29 44 53 29 23 46 42 38 42 -9 0 0 18 20 40 19 21 43 34 53 28 10 -6 16 1 12 16 -3 14 6 24 20 21 14 -3 25 7 25 21 0 27 101 134 125 134 8 0 41 27 75 60 56 55 84 69 125 62 8 -1 15 11 15 27 0 77 231 135 245 62z"/> <path d="M2723 2218 c-37 -11 -64 -24 -59 -29 16 -16 376 -41 376 -26 0 52 -210 88 -317 55z"/> <path d="M2469 2056 c-194 -229 -247 -597 -136 -941 38 -121 31 -122 233 54 311 272 486 544 508 789 l12 123 -82 -13 c-72 -11 -352 16 -447 44 -20 6 -54 -16 -88 -56z m364 -206 c7 -18 2 -43 -10 -55 -13 -13 -23 -39 -23 -59 0 -20 -10 -36 -23 -36 -13 0 -18 -6 -11 -12 7 -7 -1 -26 -17 -42 -16 -16 -57 -69 -90 -117 -34 -49 -74 -89 -89 -89 -16 0 -39 -19 -51 -43 -19 -34 -27 -37 -41 -15 -22 36 -23 104 -1 90 9 -6 16 2 16 18 0 16 -7 24 -16 18 -26 -16 -20 21 8 51 20 21 20 24 0 13 -15 -9 -25 -2 -25 17 0 17 9 31 21 31 11 0 19 11 16 25 -7 40 25 155 43 155 10 0 23 17 29 37 16 51 245 62 264 13z"/> </g> </svg> 