<?xml version="1.0" standalone="no"?>
<!DOCTYPE svg PUBLIC "-//W3C//DTD SVG 20010904//EN"
 "http://www.w3.org/TR/2001/REC-SVG-20010904/DTD/svg10.dtd">
<svg version="1.0" xmlns="http://www.w3.org/2000/svg"
 width="300.000000pt" height="145.000000pt" viewBox="0 0 300.000000 145.000000"
 preserveAspectRatio="xMidYMid meet">
<metadata>
Created by potrace 1.10, written by Peter Selinger 2001-2011
</metadata>
<g transform="translate(0.000000,145.000000) scale(0.100000,-0.100000)"
fill="#000000" stroke="none">
<path d="M48 1353 c-28 -2 -48 -9 -48 -16 0 -9 67 -12 267 -12 l268 0 123 -33
c68 -18 140 -39 159 -47 22 -9 40 -12 47 -6 18 15 145 51 231 67 264 47 521
-38 515 -171 0 -19 -1 -45 0 -57 7 -125 3 -164 -27 -230 -37 -80 -74 -134
-139 -207 -50 -55 -168 -161 -200 -179 -18 -10 -18 -11 0 -31 10 -11 31 -23
47 -26 34 -8 62 6 292 139 91 53 180 99 197 102 66 14 89 -51 50 -140 -22 -53
-13 -61 15 -14 29 50 125 147 172 175 41 24 136 45 161 36 42 -17 53 -112 22
-182 -27 -59 -19 -62 18 -9 34 50 94 101 166 143 37 22 63 29 104 30 47 0 57
-4 79 -29 31 -36 29 -42 -53 -212 -35 -74 -64 -139 -64 -144 0 -19 21 -10 93
38 127 85 247 154 263 150 29 -6 18 -23 -36 -59 -30 -20 -95 -63 -145 -96
-165 -110 -219 -127 -251 -78 -24 37 -14 98 40 238 45 114 56 167 37 167 -6 0
-37 -23 -71 -51 -74 -61 -189 -203 -227 -280 -15 -32 -38 -62 -51 -68 -54 -26
-88 -3 -77 51 12 55 82 260 103 303 24 47 20 59 -17 50 -95 -24 -310 -246
-343 -356 -12 -43 -38 -64 -67 -54 -42 13 -34 61 48 270 17 44 31 80 31 81 0
1 -44 -24 -97 -56 -357 -212 -335 -200 -389 -200 -40 0 -59 6 -89 28 l-39 28
-65 -44 c-86 -57 -285 -154 -386 -189 -108 -36 -249 -39 -310 -6 -113 61 -172
205 -148 360 32 206 211 461 426 607 45 31 88 56 95 56 24 0 12 18 -15 23 -16
2 -69 14 -120 26 -51 11 -141 25 -200 30 -136 12 -443 3 -443 -13 0 -8 59 -11
207 -9 114 1 211 -1 216 -4 5 -3 36 -7 70 -8 83 -4 190 -25 216 -42 5 -4 -40
-43 -49 -43 -16 0 -145 -114 -197 -175 -31 -36 -60 -65 -65 -65 -4 0 -8 -4 -8
-9 0 -17 -72 -131 -83 -131 -6 0 -7 -3 -4 -7 4 -3 1 -16 -6 -27 -56 -88 -85
-261 -63 -366 10 -48 39 -120 49 -120 4 0 7 -5 7 -10 0 -23 64 -79 113 -100
100 -43 260 -27 402 39 33 16 71 32 85 36 14 4 27 10 30 14 8 9 84 45 93 43 4
-1 7 2 7 7 0 10 61 37 75 33 5 -2 7 0 3 4 -7 7 52 54 68 54 4 0 21 -10 38 -23
51 -38 116 -35 201 9 39 20 72 40 75 44 3 4 37 25 75 46 39 20 82 46 96 55 15
10 38 23 52 28 l25 10 -40 -102 c-56 -146 -47 -207 32 -207 42 0 50 7 74 69
20 53 50 93 61 83 5 -4 6 -2 2 3 -3 6 0 20 6 32 13 24 107 124 154 163 61 51
104 66 79 28 -20 -33 -86 -244 -93 -298 -6 -52 13 -78 65 -84 38 -5 75 29 115
105 16 30 34 59 41 64 6 6 22 26 36 45 13 19 55 67 93 105 68 68 70 69 64 37
-4 -19 -13 -48 -21 -65 -25 -54 -57 -160 -61 -201 -4 -42 28 -105 55 -107 34
-4 69 2 103 16 20 8 40 15 43 14 3 0 18 10 32 24 36 33 70 50 84 41 7 -4 8 -3
4 4 -4 7 24 32 76 66 104 67 123 87 109 114 -19 36 -47 36 -109 1 -82 -48
-190 -118 -197 -129 -4 -6 -11 -8 -16 -5 -5 4 -9 1 -9 -4 0 -6 -4 -11 -9 -11
-6 0 0 20 12 44 12 25 24 43 28 41 3 -2 6 1 6 8 0 7 14 44 31 84 46 102 43
138 -12 172 -62 38 -93 36 -205 -18 -19 -9 -45 -26 -59 -38 -14 -13 -29 -23
-33 -23 -19 0 -24 2 -22 10 5 19 -29 81 -52 96 -52 34 -179 -7 -267 -85 -46
-41 -47 -42 -53 -19 -3 13 -20 33 -38 45 -27 18 -38 21 -70 14 -31 -8 -239
-122 -327 -180 -74 -50 -144 -70 -166 -49 -3 3 19 25 48 49 211 174 333 373
320 524 -2 28 -4 61 -4 75 0 106 -25 148 -117 195 -86 43 -154 57 -281 56
-126 -1 -144 -2 -210 -21 -25 -7 -56 -14 -70 -17 -14 -2 -44 -13 -67 -23 l-42
-18 -108 34 c-59 19 -128 37 -153 40 -25 3 -54 8 -65 11 -26 7 -416 12 -477 6z"/>
<path d="M1275 1249 c-99 -10 -285 -63 -255 -72 8 -3 63 -18 123 -35 103 -30
109 -30 145 -15 51 22 194 23 245 1 35 -16 37 -16 38 0 2 32 -3 57 -14 71 -32
38 -166 62 -282 50z m214 -40 c17 -6 28 -15 25 -20 -3 -5 2 -6 10 -3 11 4 16
0 16 -13 0 -19 -3 -19 -62 -7 -34 7 -64 11 -67 9 -3 -2 -26 -4 -51 -6 -25 -2
-59 -8 -75 -15 -31 -13 -78 -6 -148 19 l-29 10 31 13 c16 7 54 15 83 19 29 4
55 9 58 12 8 8 176 -6 209 -18z"/>
<path d="M890 1119 c-262 -150 -513 -469 -527 -672 -4 -62 -1 -78 19 -117 15
-29 37 -53 63 -68 35 -20 50 -22 120 -19 49 3 113 15 165 31 86 28 325 141
370 175 23 18 23 21 8 38 -23 25 -57 107 -73 178 -29 121 27 304 115 377 l39
33 -112 37 c-62 21 -116 38 -122 38 -5 0 -35 -14 -65 -31z m149 -26 c17 -11
21 -12 15 -2 -5 9 1 8 19 -3 14 -10 33 -18 42 -18 18 0 19 -7 3 -24 -40 -42
-58 -70 -83 -132 -23 -56 -28 -85 -29 -159 -1 -107 11 -158 61 -255 15 -28 3
-42 -62 -75 -22 -11 -57 -30 -77 -42 -21 -13 -38 -21 -38 -19 0 3 -30 -9 -67
-26 -83 -37 -138 -54 -226 -68 -133 -21 -198 27 -205 149 -2 38 2 79 9 96 6
17 13 36 15 43 9 47 112 209 174 274 22 22 40 44 40 47 0 4 23 27 52 51 28 25
57 51 64 58 7 6 16 12 19 12 4 0 19 12 34 26 15 14 54 41 86 60 65 37 105 39
154 7z"/>
<path d="M1370 1113 c-33 -6 -50 -23 -24 -24 10 0 54 -4 97 -7 42 -4 77 -4 77
0 0 22 -96 42 -150 31z"/>
<path d="M1235 1028 c-70 -82 -115 -251 -95 -356 12 -67 40 -162 46 -162 14 0
125 94 180 152 107 111 174 242 174 337 0 40 0 40 -34 34 -30 -5 -187 11 -227
23 -10 3 -27 -8 -44 -28z m133 -13 c20 -1 61 -3 91 -4 l54 -1 -5 -49 c-7 -71
-63 -176 -130 -246 -32 -32 -58 -61 -58 -63 0 -8 -76 -73 -103 -88 -22 -12
-28 -12 -26 -2 2 7 -3 30 -10 51 -15 43 -18 161 -7 224 14 79 77 188 103 179
8 -3 11 -1 8 5 -4 6 3 7 20 3 14 -3 43 -8 63 -9z"/>
</g>
</svg>
